<svg id="Layer_1" data-name="Layer 1" xmlns="http://www.w3.org/2000/svg" viewBox="0 0 371.98 97.5"><defs><style>.cls-1{fill:#2a2a2a}</style></defs><path class="cls-1" d="M53.21 91.91a44.08 44.08 0 0 0 35-43.16c0-1.32-.06-2.67-.19-4H80a35.8 35.8 0 0 1 .24 4 36.53 36.53 0 0 1-.43 5.55 35.91 35.91 0 0 1-26.6 29.45zM35 91.92V83.6a35.91 35.91 0 0 1-20.63-14.53H5a44.26 44.26 0 0 0 30 22.85z"/><path class="cls-1" d="m48.16 79.61.74-.11a30.94 30.94 0 0 0 26-26 30.93 30.93 0 0 0 0-9.56 30.94 30.94 0 0 0-26-26 31.52 31.52 0 0 0-8.83-.11v21.43h8.09V26.07l1.06.24a23 23 0 0 1 0 44.88l-1.06.24V58.24h-8.09v34.44a44.23 44.23 0 0 0 8.09 0z"/><path class="cls-1" d="M74.05 28.42h9.23A44.12 44.12 0 0 0 0 48.75c0 1.32.06 2.67.19 4h61.44v-.05a18.07 18.07 0 0 0 0-8v-.05H8.3l.14-1A36.25 36.25 0 0 1 35 13.88v-.31l3.56-.57a36.7 36.7 0 0 1 11.11 0 36.12 36.12 0 0 1 24.38 15.42zm30.11 9.49h6a3.51 3.51 0 0 0 1.31 2.92 4.74 4.74 0 0 0 3 1 4 4 0 0 0 2.84-1.12 3.66 3.66 0 0 0 1.2-2.8 3.85 3.85 0 0 0-1.47-3.37 12.19 12.19 0 0 0-3.24-1.64 2.68 2.68 0 0 0-.36-.15l-.36-.11-.23-.08-.23-.08a24.57 24.57 0 0 1-2.61-1 8.14 8.14 0 0 1-2.31-1.66 8.53 8.53 0 0 1-1.58-2.32 9.72 9.72 0 0 1-.82-2.69v-.96a8.22 8.22 0 0 1 2.7-6.34 9.23 9.23 0 0 1 6.44-2.5 9 9 0 0 1 6.38 2.59 8.13 8.13 0 0 1 2.72 6.25h-5.93a3 3 0 0 0-1.1-2.32 3.63 3.63 0 0 0-2.4-.88 2.87 2.87 0 0 0-2.23.93 3.25 3.25 0 0 0-.84 2.27v.08a2.63 2.63 0 0 0 1 2.32 8.82 8.82 0 0 0 2.32 1.26l.29.11.29.11.42.15.42.15q1.43.46 2.76 1a9.69 9.69 0 0 1 2.46 1.51 8.15 8.15 0 0 1 2.48 3.05 9.58 9.58 0 0 1 .8 4 9.22 9.22 0 0 1-3 7 10 10 0 0 1-7.11 2.82 10.28 10.28 0 0 1-7-2.69 8.66 8.66 0 0 1-3.05-6.78zm33.57-22.35h4.5l13.09 31.1H149l-3.37-8h-11l-3.45 8h-6.35zm5.6 17.44L140 23.6l-3.32 9.4zm14.61-17.44h7.87l8.33 23.78 8.46-23.78h7.83v31.1h-5.77V23.34l-8 23.32h-4.88l-8-23.32v23.32h-5.77zm60.25 22.64h6.69a14.21 14.21 0 0 1-5.77 6.69 16.08 16.08 0 0 1-8.46 2.53h-.21A15.37 15.37 0 0 1 199 42.6a15.83 15.83 0 0 1-4.72-11.47 15.55 15.55 0 0 1 4.74-11.36A15.3 15.3 0 0 1 210.28 15a16.56 16.56 0 0 1 8.82 2.55 14.44 14.44 0 0 1 6 6.92h-6.57a10.61 10.61 0 0 0-3.62-2.78 10.39 10.39 0 0 0-4.55-1.05 9.57 9.57 0 0 0-7.24 3.18 10.65 10.65 0 0 0-3 7.55 10.31 10.31 0 0 0 3.05 7.32 9.83 9.83 0 0 0 11.51 2.23 11.94 11.94 0 0 0 3.54-2.65zM242.8 15a15.74 15.74 0 0 1 11.47 4.8A15.74 15.74 0 0 1 259 31.3a15.41 15.41 0 0 1-4.78 11.43 16.23 16.23 0 0 1-22.83 0 15.37 15.37 0 0 1-4.8-11.43 15.74 15.74 0 0 1 4.74-11.53A15.58 15.58 0 0 1 242.8 15zm-7.39 8.73a10.25 10.25 0 0 0-3.05 7.47 10.41 10.41 0 0 0 3.09 7.51 10.07 10.07 0 0 0 14.69 0 10.44 10.44 0 0 0 3.09-7.53 10.32 10.32 0 0 0-3-7.48 10 10 0 0 0-7.41-3.1 10.14 10.14 0 0 0-7.41 3.1zm-131.5 61.99v-31.1h7.32a.86.86 0 0 0 .27 0h.27q2.1 0 4.06.19a8.11 8.11 0 0 1 3.81 1.45 9.16 9.16 0 0 1 3 3.39 9.41 9.41 0 0 1 1.1 4.44 10.71 10.71 0 0 1-.93 4.4 9.34 9.34 0 0 1-2.78 3.56 7.19 7.19 0 0 1-2.82 1.39 17.07 17.07 0 0 1-3.16.46h-4.42v11.82zm6.82-17.38a1.31 1.31 0 0 0 .32 0h1.71l1.26-.11a6.05 6.05 0 0 0 1.18-.23 4.14 4.14 0 0 0 2-1.45 3.84 3.84 0 0 0 .78-2.38 3.53 3.53 0 0 0-.84-2.4 4.15 4.15 0 0 0-2.14-1.26 6.91 6.91 0 0 0-1-.19 10 10 0 0 0-1.14-.06h-3.2v8.08zm23.95-13.72h4.5l13.09 31.1h-6.36l-3.37-8h-11l-3.45 8h-6.35zm5.6 17.47L137 62.66l-3.32 9.43zm14.61-17.47h5.77v31.1h-5.77zm11.6 0H173l13 22.73V54.62h5.77v31.1h-6.4l-13-22.64v22.64h-5.77zm33.65 5.6h-5.72v-5.6h17.3v5.6h-5.82v25.5h-5.77zm14.06-5.6h5.8v31.1h-5.8zm11.61 0h6.48l13 22.73V54.62H251v31.1h-6.4l-13-22.64v22.64h-5.77zm60.97 9.18h-6.9a9.9 9.9 0 0 0-3.37-2.89 10.19 10.19 0 0 0-4.25-1.23h-.55a10.84 10.84 0 0 0-3.85.71 10.46 10.46 0 0 0-3.35 2 10.86 10.86 0 0 0-2.27 2.94 11.21 11.21 0 0 0-1.24 3.59c0 .22-.05.44-.06.65s0 .43 0 .65v.61c0 .21 0 .41.06.61a10.14 10.14 0 0 0 1 3.25 10.85 10.85 0 0 0 1.91 2.75 11.11 11.11 0 0 0 3.72 2.56 10.87 10.87 0 0 0 4.33.9h.42a10.14 10.14 0 0 0 5.05-1.66 10 10 0 0 0 3.62-3.94h-13v-5.44h20.29v.67a14.84 14.84 0 0 1-4.94 11.41 17.08 17.08 0 0 1-23.28-.06 15 15 0 0 1-4.94-11.47 15.45 15.45 0 0 1 4.92-11.62 16.24 16.24 0 0 1 11.62-4.71h.38a17.18 17.18 0 0 1 8.8 2.75 14.32 14.32 0 0 1 5.89 7z"/></svg>