<svg id="Layer_1" data-name="Layer 1" xmlns="http://www.w3.org/2000/svg" viewBox="0 0 371.98 97.5"><defs><style>.cls-1{fill:#474747}.cls-2{fill:#2a2a2a}</style></defs><g id="_Group_" data-name="&lt;Group&gt;"><g id="_Group_2" data-name="&lt;Group&gt;"><g id="_Group_3" data-name="&lt;Group&gt;"><g id="_Group_4" data-name="&lt;Group&gt;"><path id="_Path_" data-name="&lt;Path&gt;" class="cls-1" d="M14 31c12.6-3.87 32.44-4.6 43.11-2C41.4 22.93 17.13 23.9 11 27c0 1.49 1.11 2.81 3 4z"/><path id="_Path_2" data-name="&lt;Path&gt;" class="cls-1" d="M9 48.6c12.51-5.33 37.41-6.95 52.11-4-18.9-8-53.32-6.89-59.16-2C2.72 45 5.29 47 9 48.6z"/><path id="_Path_3" data-name="&lt;Path&gt;" class="cls-1" d="M11.27 68.46c4.29-6.27 29.07-9.56 45.29-6.64-17.44-8.06-49.33-6.07-53.07-2 0 0 1.78 4.6 7.74 8.78"/><path id="_Path_4" data-name="&lt;Path&gt;" class="cls-1" d="M15.76 74.39a35.7 35.7 0 0 0 11.77 4.4c-2.09-2.18 5.71-4.39 14.14-4 1.49.07 2.41.19 3.08.27-6.73-4-26.25-3.89-29-.67"/><path id="_Path_5" data-name="&lt;Path&gt;" class="cls-2" d="m10.4 69.68-.6-.6c-1.21-1.27-1.23-1.3-1.83-2-1.08-1.35-1.1-1.38-1.62-2.12-.94-1.42-1-1.44-1.41-2.21-.81-1.48-.82-1.51-1.2-2.31l-.25-.54c5.2 9.16 38.81 12.1 53.94 8.53-16.67 6.38-43.1 4.88-47 1.25"/><path id="_Path_6" data-name="&lt;Path&gt;" class="cls-2" d="M45.58 77.88a42 42 0 0 1-16.25 1.25l-1.47-.25c-1.26-.26-1.42-.3-2.36-.54-1.31-.37-1.66-.47-3.08-1a35.61 35.61 0 0 1-4.31-1.91l-.43-.24c7.84 3.93 22.22 4.27 28.1 2.58l-.2.07"/><path id="_Path_7" data-name="&lt;Path&gt;" class="cls-1" d="M27.55 19.34c6.81-1 14.09-.75 17.87.33l-.2-.06A42.09 42.09 0 0 0 29 18.35l-1.46.25c-1.26.26-1.42.3-2.36.54-1.31.37-1.66.47-3.08 1A35.64 35.64 0 0 0 17.75 22l-.44.24.73-.35a36.13 36.13 0 0 1 9.85-3.34 1 1 0 0 0-.34.79z"/><path id="_Path_8" data-name="&lt;Path&gt;" class="cls-2" d="M42 22.56c-7.42.34-14.35-1.32-14.48-3.22a1 1 0 0 1 .34-.78A36.13 36.13 0 0 0 18 21.91c-.65.34-1.29.69-1.92 1.06 2.73 3.21 22.26 3.36 29-.68-.64.09-1.56.21-3.08.27z"/><path id="_Path_9" data-name="&lt;Path&gt;" class="cls-2" d="M9 48.6C5.29 47 2.72 45 2 42.67a3.36 3.36 0 0 0-.53.57A27.57 27.57 0 0 0 1 48.06v1.44l.07 1a24.28 24.28 0 0 0 .33 2.55l.07.4a1.76 1.76 0 0 0 .31.67c3.89 5.39 40.1 6.85 59.67-1.41C46.65 55.74 21.4 54.05 9 48.6z"/><path id="_Path_10" data-name="&lt;Path&gt;" class="cls-2" d="M14 31c-1.89-1.19-3-2.51-3-4a4.5 4.5 0 0 0-1 .63l-.6.6c-1.21 1.27-1.23 1.29-1.83 2-1.04 1.41-1.06 1.44-1.57 2.18-1 1.42-1 1.45-1.42 2.23s-.68 1.23-.84 1.55a.91.91 0 0 0 .05.34c1.53 4.38 35 7.38 53.13-1C42.61 38.11 21.64 35.85 14 31z"/></g></g></g><g id="_Group_5" data-name="&lt;Group&gt;"><path id="_Compound_Path_" data-name="&lt;Compound Path&gt;" class="cls-2" d="M73.64 67.85V29.6h17.41q11.73 0 11.73 10.26 0 6.94-9.13 11.49l12.14 16.55h-9.22L84.92 51.21V48q10.45-1.74 10.45-7.9 0-4.23-4.77-4.23h-9.73v32z"/><path id="_Compound_Path_2" data-name="&lt;Compound Path&gt;" class="cls-2" d="M109.68 67.9v-5.36q19.15-13.31 19.15-22 0-5.09-7-5.09a22.27 22.27 0 0 0-11.12 2.95V32a24 24 0 0 1 11.12-2.68q14.06 0 14.06 11.25 0 9.91-15.35 21.16h15.35v6.17z"/><path id="_Compound_Path_3" data-name="&lt;Compound Path&gt;" class="cls-2" d="M142.94 66.29v-6.43A37.12 37.12 0 0 0 156 62q8.81 0 8.81-5.89 0-4.28-5.41-4.29h-6.54q-11.76 0-11.76-10.71 0-11.79 16.74-11.79A39.11 39.11 0 0 1 170 31.2v6.43a34.67 34.67 0 0 0-12.19-2.14q-9.64 0-9.64 5.63 0 4.29 4.66 4.29h6.54q12.51 0 12.51 10.71 0 12.05-15.91 12.05a42 42 0 0 1-13.03-1.88z"/><path id="_Compound_Path_4" data-name="&lt;Compound Path&gt;" class="cls-2" d="M175.19 53.84q0-14.33 14.2-14.33t14.2 14.33q0 14.3-14.2 14.3t-14.2-14.3zm14.2 8.71q7.1 0 7.1-8.81 0-8.6-7.1-8.6t-7.1 8.6q0 8.8 7.09 8.8z"/><path id="_Compound_Path_5" data-name="&lt;Compound Path&gt;" class="cls-2" d="M215 29.6v38.3h-7.1V29.6z"/><path id="_Compound_Path_6" data-name="&lt;Compound Path&gt;" class="cls-2" d="M247 39.77V67.9h-5.54l-.86-3.59a17.8 17.8 0 0 1-10.29 3.59q-9.7 0-9.7-10.47V39.77h7.1v17.74q0 4.66 4.61 4.66 3.72 0 7.58-3.56V39.77z"/><path id="_Compound_Path_7" data-name="&lt;Compound Path&gt;" class="cls-2" d="M252.71 35.22H258l1 4.55h6.54v5.63h-5.76v12.94q0 3.94 3.4 3.94h2.36v5.62h-5.79q-7.07 0-7.07-7.58z"/><path id="_Compound_Path_8" data-name="&lt;Compound Path&gt;" class="cls-2" d="M277.16 29.6v5.63h-7.1V29.6zm0 10.18V67.9h-7.1V39.77z"/><path id="_Compound_Path_9" data-name="&lt;Compound Path&gt;" class="cls-2" d="M281.47 53.84q0-14.33 14.2-14.33t14.2 14.33q0 14.3-14.2 14.3t-14.2-14.3zm14.2 8.71q7.1 0 7.1-8.81 0-8.6-7.1-8.6t-7.1 8.6q0 8.8 7.1 8.8z"/><path id="_Compound_Path_10" data-name="&lt;Compound Path&gt;" class="cls-2" d="M314.09 67.9V39.77h5.49l.88 3.59a17.8 17.8 0 0 1 10.29-3.59q9.72 0 9.72 10.47V67.9h-7.1V50.17q0-4.66-4.63-4.66-3.72 0-7.55 3.56V67.9z"/><path id="_Compound_Path_11" data-name="&lt;Compound Path&gt;" class="cls-2" d="M346.17 66.56v-5.89A29 29 0 0 0 357 62.54q4.58 0 4.58-2.95 0-2.68-3.08-2.68h-5.1q-8.57 0-8.57-8.57 0-8.84 12.51-8.84a30.58 30.58 0 0 1 10 1.61V47a27.16 27.16 0 0 0-10.18-1.88q-5.76 0-5.76 2.95 0 2.68 3.35 2.68h4.55q9.38 0 9.38 8.57 0 8.84-11.95 8.84a32.4 32.4 0 0 1-10.56-1.6z"/></g></g></svg>