<svg id="Layer_1" data-name="Layer 1" xmlns="http://www.w3.org/2000/svg" viewBox="0 0 371.98 97.5"><defs><style>.cls-1{fill:#2a2a2a}</style></defs><path class="cls-1" d="M21.76 29.64H9.78v-8.18h13.21v-8.1H0v40.89h9.78V37.74h11.98v-8.1zm8.46-16.28v40.89h22.87v-8.11h-13.1V13.36h-9.77zM296 38.34l10.14 15.9h12.12l-13.11-17.05.93-.17a9.81 9.81 0 0 0 6.41-3.84 12.27 12.27 0 0 0 2.31-7.46c0-4.11-1.28-7.22-3.8-9.25s-6-3.11-10.23-3.11H285v40.89h9.78V38.08h.89zm-1.17-17.77h1.63c5.41 0 8.16 2 8.16 5.82s-2.74 5.82-8.16 5.82h-1.63zm58.09-5.96a24.69 24.69 0 0 0-22.22 0 21.68 21.68 0 0 0-8.37 7.53A19.52 19.52 0 0 0 319.14 33c0 6.61 2.15 12.09 6.38 16.29s9.72 6.33 16.29 6.33 12.06-2.13 16.29-6.33 6.38-9.68 6.38-16.29a19.52 19.52 0 0 0-3.2-10.89 21.69 21.69 0 0 0-8.36-7.5zm-2.28 27.82a12.23 12.23 0 0 1-17.67 0 13 13 0 0 1-3.62-9.35 11 11 0 0 1 3.65-8.17 12.7 12.7 0 0 1 17.52 0 11 11 0 0 1 3.69 8.17 13 13 0 0 1-3.57 9.35zM137.86 23.82l2.47.19q3.2.26 6.43.56v-3.11h13v-8.1H137v10.4zm.84 15.49-1.7-.21v15.15h22.77v-8.1h-13v-5.82zm-6.83-25.95h-27.84v8.1h9.04v32.79h9.77V21.46h9.03v-8.1zm148.19 13.25c0-4.45-1.31-7.8-3.89-10s-6.25-3.29-10.81-3.29h-16.15v40.93H259V40.31h6.76c9.62 0 14.3-4.48 14.3-13.7zm-18.66 6H259V21h2.41c1.08 0 1.93 0 2.52.06a15.63 15.63 0 0 1 2.14.32 4.4 4.4 0 0 1 2.08.95 5.16 5.16 0 0 1 1.2 1.79 7.17 7.17 0 0 1 .49 2.82 6.46 6.46 0 0 1-.53 2.75 4.83 4.83 0 0 1-1.24 1.7 5 5 0 0 1-2.11.9 12.14 12.14 0 0 1-2.17.32q-.79.04-2.39.04zm-95.87 1.25c0 6.34 2.21 11.54 6.56 15.46a22.26 22.26 0 0 0 15.39 6 34.67 34.67 0 0 0 9.07-1.8V42.33a13.26 13.26 0 0 1-3.41 2.33 12.52 12.52 0 0 1-5.43 1.25 11.61 11.61 0 0 1-8.63-3.38 11.84 11.84 0 0 1-3.32-8.63 12.31 12.31 0 0 1 3.28-8.7 11.14 11.14 0 0 1 8.5-3.53 13.07 13.07 0 0 1 5.63 1.25 11.78 11.78 0 0 1 3.39 2.4V14.18a25.4 25.4 0 0 0-9.4-1.93 21.33 21.33 0 0 0-8.43 1.75 22.26 22.26 0 0 0-7.17 4.86 20.78 20.78 0 0 0-6.03 15zM.95 83l2-2.22a3 3 0 0 0 1.15 1.44 3.36 3.36 0 0 0 1.84.52 3 3 0 0 0 2-.58 1.92 1.92 0 0 0 .72-1.57q0-1.17-2.4-2.33L5 77.64a9.14 9.14 0 0 1-3-2.2 4.06 4.06 0 0 1-.83-2.56 4.12 4.12 0 0 1 1.61-3.35A6.44 6.44 0 0 1 7 68.23a5.89 5.89 0 0 1 2.58.52 5.25 5.25 0 0 1 1.92 1.64l-2.08 2a2.55 2.55 0 0 0-1-1.07A2.91 2.91 0 0 0 6.93 71a2.59 2.59 0 0 0-1.69.52 1.67 1.67 0 0 0-.64 1.36q0 1.31 2.54 2.38l.78.34A8.68 8.68 0 0 1 11 77.71a4.16 4.16 0 0 1 1 2.74 4.65 4.65 0 0 1-1.58 3.7 6.24 6.24 0 0 1-4.22 1.38 7.39 7.39 0 0 1-3.2-.65A4.38 4.38 0 0 1 .95 83zm24.44 2.09 6.27-16.47h4L42 85.09h-4l-1.34-3.5h-6.34l-1.15 3.5zm10.48-6.27L34 73.5q-.08-.24-.2-.81t-.26-1.41q-.15.8-.28 1.43t-.2.85l-1.78 5.25zm20.34 6.27V68.62h3.52V82.1h5.62v3zm23.79 0V68.62h9.7v3h-6.17V75h6.18v3h-6.18v4.1h6.18v3zM104.54 83l2-2.22a3 3 0 0 0 1.19 1.43 3.36 3.36 0 0 0 1.84.52 3 3 0 0 0 2-.58 1.92 1.92 0 0 0 .72-1.57q0-1.17-2.4-2.33l-1.23-.61a9.14 9.14 0 0 1-3-2.2 4.06 4.06 0 0 1-.83-2.56 4.12 4.12 0 0 1 1.61-3.35 6.44 6.44 0 0 1 4.19-1.31 5.89 5.89 0 0 1 2.58.52 5.25 5.25 0 0 1 1.92 1.64l-2.08 2a2.55 2.55 0 0 0-1-1.07 2.91 2.91 0 0 0-1.48-.35 2.59 2.59 0 0 0-1.69.52 1.67 1.67 0 0 0-.64 1.36q0 1.31 2.54 2.38l.78.34a8.68 8.68 0 0 1 3.1 2.16 4.16 4.16 0 0 1 1 2.74 4.65 4.65 0 0 1-1.58 3.7 6.24 6.24 0 0 1-4.25 1.38 7.39 7.39 0 0 1-3.24-.65 4.38 4.38 0 0 1-2.05-1.89zm56.37 2.09-1.41-1.61a7.47 7.47 0 0 1-2.13 1.52 5.81 5.81 0 0 1-2.38.47 5.55 5.55 0 0 1-3.86-1.29 4.4 4.4 0 0 1-1.43-3.43 4.35 4.35 0 0 1 .86-2.6 8.55 8.55 0 0 1 2.63-2.24 6.25 6.25 0 0 1-1.32-1.77 4.33 4.33 0 0 1-.39-1.83 3.31 3.31 0 0 1 1.2-2.68 4.87 4.87 0 0 1 3.22-1 4.72 4.72 0 0 1 3.09.94 3.11 3.11 0 0 1 1.15 2.53 3.35 3.35 0 0 1-.67 2 9.56 9.56 0 0 1-2.35 2.06l2.79 3.23q.72-.69 1.3-1.31t1.09-1.24l1.81 1.93q-.57.64-1.18 1.29t-1.33 1.36l3 3.64zm-3.09-3.57-3.1-3.73-.35.25a4.9 4.9 0 0 0-1.24 1.23 2.34 2.34 0 0 0-.39 1.29 2.1 2.1 0 0 0 .69 1.56 2.27 2.27 0 0 0 1.63.66 3.75 3.75 0 0 0 1.56-.32 3.22 3.22 0 0 0 1.2-.94zm-2.31-6.94.58-.35a3 3 0 0 0 1-.88 1.92 1.92 0 0 0 .32-1.07 1.56 1.56 0 0 0-.43-1.15 1.49 1.49 0 0 0-1.11-.44 1.61 1.61 0 0 0-1.18.44 1.56 1.56 0 0 0-.45 1.16 1.84 1.84 0 0 0 .13.66 2.18 2.18 0 0 0 .38.63zM197.82 83l2-2.22a3 3 0 0 0 1.18 1.44 3.36 3.36 0 0 0 1.84.52 3 3 0 0 0 2-.58 1.92 1.92 0 0 0 .72-1.57q0-1.17-2.4-2.33l-1.23-.61a9.14 9.14 0 0 1-3-2.2 4.06 4.06 0 0 1-.83-2.56 4.12 4.12 0 0 1 1.61-3.35 6.44 6.44 0 0 1 4.19-1.31 5.89 5.89 0 0 1 2.58.52 5.25 5.25 0 0 1 1.92 1.64l-2.08 2a2.55 2.55 0 0 0-1-1.07 2.91 2.91 0 0 0-1.52-.32 2.59 2.59 0 0 0-1.69.52 1.67 1.67 0 0 0-.64 1.36q0 1.31 2.54 2.38l.78.34a8.68 8.68 0 0 1 3.1 2.16 4.16 4.16 0 0 1 1 2.74 4.65 4.65 0 0 1-1.58 3.7 6.24 6.24 0 0 1-4.25 1.38 7.39 7.39 0 0 1-3.24-.65 4.38 4.38 0 0 1-2-1.93zm26.4 2.09V68.62h9.7v3h-6.18V75h6.18v3h-6.18v4.1h6.18v3zm37.5 0h-4.06l-4.33-7.69v7.69h-3.52V68.62h5a7.26 7.26 0 0 1 4.5 1.16 4.16 4.16 0 0 1 1.5 3.5 4.33 4.33 0 0 1-1 2.9 4 4 0 0 1-2.64 1.41zm-8.39-9.45h.53a5.64 5.64 0 0 0 2.82-.47 1.82 1.82 0 0 0 .69-1.63 2 2 0 0 0-.74-1.73 5.24 5.24 0 0 0-2.77-.51h-.53zm27.05 9.45-6.09-16.47h3.89l3.21 10.27q.09.31.28 1.17t.4 1.95q.15-1.06.32-1.88t.34-1.35L286 68.62h3.85l-6.13 16.47zm23.74 0V68.62h3.52v16.47zm32.98-12.18a7.38 7.38 0 0 0-2.19-1.4 6.49 6.49 0 0 0-2.41-.44 5.65 5.65 0 0 0-4.2 1.57 6.54 6.54 0 0 0-.11 8.35 5.21 5.21 0 0 0 4 1.52 7 7 0 0 0 4.93-1.91v3.61a9.32 9.32 0 0 1-2.36 1 10.08 10.08 0 0 1-2.59.33 8.9 8.9 0 0 1-6.46-2.45 8.88 8.88 0 0 1 0-12.41 9 9 0 0 1 6.52-2.44 11.75 11.75 0 0 1 2.59.28 11.49 11.49 0 0 1 2.46.87zm15.71 12.18V68.62h9.7v3h-6.18V75h6.18v3h-6.18v4.1h6.18v3z"/><path class="cls-1" d="M220.82 32c-4.21.42-8.86.64-13.84.66-4.67 0-9.76-.1-15.52-.43-3.73-.22-7.61-.48-11.57-.79a10.07 10.07 0 0 0-.28 2.44 8 8 0 0 0 2.21 5.92l.07.07c3.55.21 6.51.32 9.31.35a145.56 145.56 0 0 0 16.16-.64 101.92 101.92 0 0 0 14.37-2.4 66.57 66.57 0 0 0 11.7-4 37.54 37.54 0 0 0 8.12-4.94 21.26 21.26 0 0 0 3.17-3.09 27.15 27.15 0 0 1-3.79 2.13 47.8 47.8 0 0 1-8.58 2.88A86.85 86.85 0 0 1 220.82 32zM92.59 27.45a91.22 91.22 0 0 0-12 2.26 63.28 63.28 0 0 0-8.87 3c-.9.38-1.73.75-2.46 1.13.54-.14 1.13-.28 1.73-.42l.89-.21A70 70 0 0 1 81 31.78c3.69-.37 7.64-.54 11.83-.54s9 .22 14 .61l2.37.19v-5.61h-2.23a143.7 143.7 0 0 0-14.38 1zm68.71 2.38-3.88-.37-5-.47c-4.1-.39-8.33-.79-12.46-1.13s-8.45-.66-13.29-.94v7l6.84.86 5.64.71c5.38.7 11.23 1.42 17.38 2.14l5.42.59a28.74 28.74 0 0 1-.33-4.35 27.22 27.22 0 0 1 .3-4zm70.2-3.45a43.94 43.94 0 0 0 7.85-2.63c.54-.25 1.06-.51 1.58-.8v-9.59h-9.78v13.1z"/><path class="cls-1" d="M205.54 28.8H207c2.41 0 4.84-.08 7.22-.19V13.36h-9.78V28.8zm29.54 7.88c-1.12.52-2.41 1-3.93 1.62v15.95h9.78V33.48a46.77 46.77 0 0 1-5.85 3.2zm-27.3 6.74c-1.09.11-2.21.2-3.33.28v10.55h9.78V42.59c-2.23.34-4.34.62-6.45.83zM89.48 14.61a24.69 24.69 0 0 0-22.22 0 21.68 21.68 0 0 0-8.37 7.53A19.52 19.52 0 0 0 55.7 33c0 6.61 2.15 12.09 6.38 16.29s9.72 6.33 16.29 6.33 12.06-2.13 16.29-6.33a21.48 21.48 0 0 0 6.27-14c-2.91-.15-5.62-.23-8.08-.24h-2.16a12.69 12.69 0 0 1-3.49 7.34 12.23 12.23 0 0 1-17.67 0 13 13 0 0 1-3.62-9.35 11 11 0 0 1 3.69-8.17 12.68 12.68 0 0 1 17-.49c1.88-.34 3.75-.62 5.59-.85s4-.45 6.2-.61c-.17-.3-.34-.57-.51-.83a21.69 21.69 0 0 0-8.4-7.48z"/></svg>