<svg id="Layer_1" data-name="Layer 1" xmlns="http://www.w3.org/2000/svg" viewBox="0 0 371.98 97.5"><defs><style>.cls-1{fill:#2a2a2a}</style></defs><g id="_Group_" data-name="&lt;Group&gt;"><path id="_Path_" data-name="&lt;Path&gt;" class="cls-1" d="m58.4 63.38-1-1 .94-.94L61 58.67c5.31-5.31 3.15-9.05 1.4-10.81-3.71-3.71-9.46-.37-18.54 5.39-13.66 8.69-24.86 14.65-33.48 6-5.76-5.75-10.38-14.36 5.29-30l.85-.79 6.95 6.95-.93 1-2.28 2.27c-5.31 5.31-3.15 9.05-1.39 10.81 3.7 3.7 9.42.36 18.45-5.4 13.7-8.74 24.88-14.73 33.62-6 5.75 5.75 10.35 14.36-5.3 30l-1.32 1.32z"/><g id="_Group_2" data-name="&lt;Group&gt;"><path id="_Path_2" data-name="&lt;Path&gt;" class="cls-1" d="m41.26 17.45-11.29 11.3h-.01l-7.07-6.91L35.3 9.43l5.96-5.97 8.43 8.43.25.25 8.43 8.43-6.98 6.98-10.13-10.1z"/><path id="_Path_3" data-name="&lt;Path&gt;" class="cls-1" d="m39.99 80.05 11.3-11.3 7.08 6.91-12.41 12.41L40 94.03l-8.43-8.43-.25-.25-8.43-8.43 6.98-6.98 10.12 10.11z"/></g><path class="cls-1" d="M105 21.49a10.37 10.37 0 0 0-5.07 1.26q-2.06 1.2-2.06 4.58A4 4 0 0 0 99.58 31a7.48 7.48 0 0 0 4.09 1.11l12.33-.05q.68.06 1.41.06t1.47.06a20 20 0 0 1 4.24.71 9.14 9.14 0 0 1 5.9 5.38 14.46 14.46 0 0 1 .92 3.93q.06.61.09 1.2v1.2q-.12 7.68-4.24 10.41t-11.19 2.73H89.9v-7.86h23.23a11.89 11.89 0 0 0 5.31-1q2.24-1 1.81-4.73-.31-2.89-2.15-3.56a13.66 13.66 0 0 0-4.36-.74l-10.94-.05q-6.8.06-10.8-2.73T88.12 27q.12-7.68 4.27-10.48t11.21-2.8l24.27-.06v7.86zm36.94-7.87 10.2 33.92 8.6-33.92h10.94l9.89 33.92 9.52-33.92h9.52L187 57.74h-11.39l-9.4-32.93L158 57.74h-11.33L132 13.62zM205 57.74V13.62h9.71v44.12zm22.56-38.52q4-5.53 17.66-5.53l14.13-.06v7.68h-14.93q-5.84.12-8.57 2.52t-3 8.29l26.54-.06v7.62h-26.58v18.06h-9.28V37.46q0-12.71 4.03-18.24zM261 21.37v-7.68h38v7.68h-14.27v36.37h-9.58V21.37zM99.31 65.77a.09.09 0 0 0 .07 0h1.09a10.08 10.08 0 0 1 1 .05 11.44 11.44 0 0 1 1.82.26 5.86 5.86 0 0 1 1.69.66 4.71 4.71 0 0 1 2 2.29 8.22 8.22 0 0 1 .63 3 7.27 7.27 0 0 1-.5 2.81 5 5 0 0 1-1.74 2.24 5.63 5.63 0 0 1-2.23 1 16.87 16.87 0 0 1-2.44.28h-6.16v6.77h-4.07V65.77zm-.05 3.45h-4.72v5.72h5a5.33 5.33 0 0 0 2.56-.58 2.32 2.32 0 0 0 1.08-2.25q.05-1.86-1.15-2.36a7.09 7.09 0 0 0-2.74-.5zm21.26-3.45h1.16a9.85 9.85 0 0 1 2.17.35 4.22 4.22 0 0 1 1.87 1.11 4.52 4.52 0 0 1 1.09 1.65 6.9 6.9 0 0 1 .44 1.94v.76a6.11 6.11 0 0 1-.93 3.49 4.67 4.67 0 0 1-3 2l4.83 8.07h-4.59l-4.26-7.61h-4.8v7.61h-4.07V65.77zm-1 3.45h-5v4.88h5.22a6.81 6.81 0 0 0 2.36-.39q1.07-.39 1-2.06T122 69.6a8.34 8.34 0 0 0-2.5-.35zM130 71.16a8.45 8.45 0 0 1 2.06-3.47 7.72 7.72 0 0 1 3.57-1.9 16.21 16.21 0 0 1 1.67-.3 14.06 14.06 0 0 1 1.73-.11 13 13 0 0 1 1.86.08 11.51 11.51 0 0 1 1.81.35 7.54 7.54 0 0 1 3.53 1.89 8 8 0 0 1 2 3.48 16 16 0 0 1 .57 4.21 18.72 18.72 0 0 1-.13 2.27 12.85 12.85 0 0 1-.43 2.1 7.8 7.8 0 0 1-2.05 3.52 7.61 7.61 0 0 1-3.61 1.85 12.7 12.7 0 0 1-1.78.31 18 18 0 0 1-1.86.1 13.18 13.18 0 0 1-1.67-.11 16.57 16.57 0 0 1-1.65-.3 7.6 7.6 0 0 1-3.59-1.85 7.8 7.8 0 0 1-2-3.52 14.32 14.32 0 0 1-.42-2 16.71 16.71 0 0 1-.15-2.24 18.83 18.83 0 0 1 .13-2.25 10.8 10.8 0 0 1 .43-2zm4.21 1.38a10.27 10.27 0 0 0-.27 1.47 13.35 13.35 0 0 0-.08 1.47A11.73 11.73 0 0 0 134 77a14.31 14.31 0 0 0 .26 1.44 5.77 5.77 0 0 0 1 2.16 4 4 0 0 0 1.93 1.35 5.39 5.39 0 0 0 1 .24 6.52 6.52 0 0 0 2 0 5.41 5.41 0 0 0 1-.24 4 4 0 0 0 1.94-1.35 5.39 5.39 0 0 0 1-2.16q.16-.7.26-1.44a11.93 11.93 0 0 0 .09-1.5 11.74 11.74 0 0 0-.09-1.47q-.1-.74-.26-1.44a5.51 5.51 0 0 0-1-2.17 3.85 3.85 0 0 0-1.94-1.34 5.6 5.6 0 0 0-1-.24 6.52 6.52 0 0 0-2 0 5.58 5.58 0 0 0-1 .24 3.88 3.88 0 0 0-1.91 1.35 6.28 6.28 0 0 0-1 2.16zm30.33-3.32a4.56 4.56 0 0 0-2.22.55 2.12 2.12 0 0 0-.9 2 1.77 1.77 0 0 0 .77 1.62 3.3 3.3 0 0 0 1.79.49h6.66a8.76 8.76 0 0 1 1.86.31 4 4 0 0 1 2.59 2.36 6.39 6.39 0 0 1 .41 1.73v1.06q-.05 3.37-1.86 4.57a8.77 8.77 0 0 1-4.91 1.2h-10.8v-3.43h10.2a5.21 5.21 0 0 0 2.33-.43q1-.46.8-2.08-.14-1.27-.94-1.56a6 6 0 0 0-1.91-.32h-4.8a8 8 0 0 1-4.73-1.2q-1.74-1.23-1.71-4.44.05-3.37 1.87-4.6a8.69 8.69 0 0 1 4.92-1.23h10.66v3.45zm18.69 1.12a5.16 5.16 0 0 0-1.23 3.33h11.28V77H182a8.3 8.3 0 0 0 .23 2 4 4 0 0 0 .93 1.73 2.59 2.59 0 0 0 1.47.9 8.56 8.56 0 0 0 1.74.18h6.93v3.37h-6.88a16.53 16.53 0 0 1-3.17-.3 6.58 6.58 0 0 1-2.87-1.38 7 7 0 0 1-2.27-3.22 13.14 13.14 0 0 1-.7-3.9v-1.65q.3-4.59 2.5-6.74t6.6-2.16h6.77v3.37h-6.69a4.47 4.47 0 0 0-3.36 1.14zm23.63-4.57h1.16a9.85 9.85 0 0 1 2.17.35 4.22 4.22 0 0 1 1.87 1.11 4.52 4.52 0 0 1 1.09 1.65 6.9 6.9 0 0 1 .44 1.94v.76a6.11 6.11 0 0 1-.93 3.49 4.67 4.67 0 0 1-3 2l4.83 8.07H210l-4.26-7.61h-4.8v7.61h-4.07V65.77zm-1 3.45h-5v4.88h5.22a6.81 6.81 0 0 0 2.36-.39q1.07-.39 1-2.06t-1.12-2.08a8.34 8.34 0 0 0-2.5-.35zm8.37-3.45h4.59l5.83 14.43 6-14.43h4.34l-8.09 19.37h-4.21zM236 85.13V65.77h4.26v19.36zM248.46 71a11.65 11.65 0 0 0-.94 4.45v1.78a9.17 9.17 0 0 0 .35 1.85 4.19 4.19 0 0 0 .89 1.61 2.71 2.71 0 0 0 1.5.9 8.56 8.56 0 0 0 1.74.18h6.93v3.37h-6.88a16.53 16.53 0 0 1-3.17-.3 6.58 6.58 0 0 1-2.88-1.38 7 7 0 0 1-2.27-3.22 13.14 13.14 0 0 1-.7-3.9v-1.65q.3-4.59 2.5-6.74t6.6-2.16h6.77v3.32h-6.69q-2.89 0-3.75 1.89zm18.12-.66a5.16 5.16 0 0 0-1.24 3.33h11.28V77h-11.3a8.3 8.3 0 0 0 .23 2 4 4 0 0 0 .93 1.73 2.59 2.59 0 0 0 1.47.9 8.56 8.56 0 0 0 1.74.18h6.93v3.37h-6.88a16.53 16.53 0 0 1-3.17-.3 6.58 6.58 0 0 1-2.87-1.38 7 7 0 0 1-2.27-3.22 13.14 13.14 0 0 1-.7-3.9v-1.65q.3-4.59 2.5-6.74t6.6-2.16h6.77v3.37h-6.69a4.47 4.47 0 0 0-3.33 1.14zm19.91-1.12a4.56 4.56 0 0 0-2.22.55 2.12 2.12 0 0 0-.9 2 1.77 1.77 0 0 0 .77 1.62 3.3 3.3 0 0 0 1.79.49h6.66a8.76 8.76 0 0 1 1.86.31 4 4 0 0 1 2.55 2.39 6.39 6.39 0 0 1 .41 1.73v1.06q-.05 3.37-1.86 4.57a8.77 8.77 0 0 1-4.91 1.2h-10.76v-3.46h10.2a5.21 5.21 0 0 0 2.33-.43q1-.46.8-2.08-.14-1.27-.94-1.56a6 6 0 0 0-1.91-.32h-4.8a8 8 0 0 1-4.73-1.2q-1.74-1.23-1.71-4.44.05-3.37 1.87-4.6a8.69 8.69 0 0 1 4.92-1.23h10.66v3.45z"/></g></svg>