<svg id="Layer_1" data-name="Layer 1" xmlns="http://www.w3.org/2000/svg" viewBox="0 0 371.98 97.5"><defs><style>.cls-1{fill:#2a2a2a}</style></defs><g id="_Group_" data-name="&lt;Group&gt;"><g id="_Group_2" data-name="&lt;Group&gt;"><g id="_Group_3" data-name="&lt;Group&gt;"><g id="_Group_4" data-name="&lt;Group&gt;"><path id="_Compound_Path_" data-name="&lt;Compound Path&gt;" class="cls-1" d="M100.18 53.36V24.79h11.59q13.38 0 13.38 13.5 0 15.06-13.38 15.06zm10.79-3q10.49 0 10.49-12.06 0-10.51-10.49-10.51h-7.09v22.57z"/><path id="_Compound_Path_2" data-name="&lt;Compound Path&gt;" class="cls-1" d="m125.16 53.36 12.13-28.56h4.1l12.18 28.56h-3.9l-3.8-9h-9.55l1-3h7.13l-5.25-12.73L129 53.36z"/><path id="_Compound_Path_3" data-name="&lt;Compound Path&gt;" class="cls-1" d="M171.68 24.79v3h-9v25.57H159V27.79h-9v-3z"/><path id="_Compound_Path_4" data-name="&lt;Compound Path&gt;" class="cls-1" d="m168.13 53.36 12.13-28.56h5.69l12.38 28.56h-5.69L189 45.57h-9.15l1.86-4.57h5.93L183 30.25l-9.41 23.11z"/><path id="_Compound_Path_5" data-name="&lt;Compound Path&gt;" class="cls-1" d="M206.18 24.79v28.57h-5.29V24.79z"/><path id="_Compound_Path_6" data-name="&lt;Compound Path&gt;" class="cls-1" d="M211.38 53.36V24.79h3.7l17.48 22.81V24.79H236v28.57h-3.7l-17.43-22.81v22.81z"/><path id="_Compound_Path_7" data-name="&lt;Compound Path&gt;" class="cls-1" d="M241.32 52.36v-3.2a32 32 0 0 0 9.91 1.4q7.17 0 7.17-5.79 0-4.39-4.23-4.39h-6.27q-8 0-8-7.39 0-8.39 11.49-8.39a34.43 34.43 0 0 1 9.29 1.2V29a29.82 29.82 0 0 0-9.29-1.4q-7.79 0-7.79 5.39 0 4.4 4.28 4.39h6.27q7.93 0 7.93 7.39 0 8.79-10.87 8.79a37 37 0 0 1-9.89-1.2z"/><path id="_Compound_Path_8" data-name="&lt;Compound Path&gt;" class="cls-1" d="M269.63 24.79v28.57h-3.7V24.79z"/><path id="_Compound_Path_9" data-name="&lt;Compound Path&gt;" class="cls-1" d="M296.62 52.24a20.75 20.75 0 0 1-7.45 1.32q-15.52 0-15.52-14.88 0-14.08 15-14.08a25.75 25.75 0 0 1 8 1.2V29a21.26 21.26 0 0 0-7.59-1.4q-11.69 0-11.69 11.09 0 11.89 11.51 11.89a19.57 19.57 0 0 0 4.07-.48v-9.73h3.7z"/><path id="_Compound_Path_10" data-name="&lt;Compound Path&gt;" class="cls-1" d="M301.41 53.36V24.79h3.7v12.59h17.28V24.79h3.7v28.57h-3.7v-13h-17.28v13z"/><path id="_Compound_Path_11" data-name="&lt;Compound Path&gt;" class="cls-1" d="M350.08 24.79v3h-9v25.57h-3.7V27.79h-9v-3z"/><path id="_Compound_Path_12" data-name="&lt;Compound Path&gt;" class="cls-1" d="M352.68 52.36v-3.2a32 32 0 0 0 9.91 1.4q7.17 0 7.17-5.79 0-4.39-4.23-4.39h-6.27q-8 0-8-7.39 0-8.39 11.49-8.39a34.43 34.43 0 0 1 9.29 1.2V29a29.82 29.82 0 0 0-9.29-1.4Q355 27.59 355 33q0 4.4 4.28 4.39h6.27q7.93 0 7.93 7.39 0 8.79-10.87 8.79a37 37 0 0 1-9.93-1.21z"/></g><g id="_Group_5" data-name="&lt;Group&gt;"><path id="_Compound_Path_13" data-name="&lt;Compound Path&gt;" class="cls-1" d="M130.78 80.78v-2.17a21.77 21.77 0 0 0 6.73.95q4.87 0 4.87-3.94 0-3-2.88-3h-4.26q-5.42 0-5.42-5 0-5.7 7.81-5.7a23.41 23.41 0 0 1 6.31.81v2.17a20.3 20.3 0 0 0-6.31-1q-5.29 0-5.29 3.67 0 3 2.9 3h4.26q5.39 0 5.39 5 0 6-7.39 6a25.13 25.13 0 0 1-6.72-.79z"/><path id="_Compound_Path_14" data-name="&lt;Compound Path&gt;" class="cls-1" d="M153.51 71.78q0-9.87 9.75-9.87t9.6 9.87q0 9.82-9.6 9.82-9.32 0-9.75-9.82zm9.75 7.78q7 0 7-7.86t-7-7.75q-7.1 0-7.1 7.75t7.1 7.86z"/><path id="_Compound_Path_15" data-name="&lt;Compound Path&gt;" class="cls-1" d="M185 62v17.43h10.16v2h-12.68V62z"/><path id="_Compound_Path_16" data-name="&lt;Compound Path&gt;" class="cls-1" d="M203.54 74V62h2.51v12q0 5.59 5.57 5.59t5.57-5.59V62h2.51v12q0 7.63-8.08 7.63T203.54 74z"/><path id="_Compound_Path_17" data-name="&lt;Compound Path&gt;" class="cls-1" d="M242.84 62v2h-6.11v17.46h-2.51V64.09h-6.11V62z"/><path id="_Compound_Path_18" data-name="&lt;Compound Path&gt;" class="cls-1" d="M253.77 62v19.46h-2.51V62z"/><path id="_Compound_Path_19" data-name="&lt;Compound Path&gt;" class="cls-1" d="M263.34 71.78q0-9.87 9.75-9.87t9.6 9.87q0 9.82-9.6 9.82-9.31 0-9.75-9.82zm9.75 7.78q7 0 7-7.86t-7-7.75q-7.1 0-7.1 7.75t7.1 7.86z"/><path id="_Compound_Path_20" data-name="&lt;Compound Path&gt;" class="cls-1" d="M292.31 81.46V62h2.51l11.88 15.5V62h2.38v19.46h-2.51L294.69 66v15.5z"/><path id="_Compound_Path_21" data-name="&lt;Compound Path&gt;" class="cls-1" d="M319.51 80.78v-2.17a21.77 21.77 0 0 0 6.73.95q4.87 0 4.87-3.94 0-3-2.88-3H324q-5.42 0-5.42-5 0-5.7 7.81-5.7a23.41 23.41 0 0 1 6.31.81v2.17a20.3 20.3 0 0 0-6.31-1q-5.29 0-5.29 3.67 0 3 2.9 3h4.26q5.39 0 5.39 5 0 6-7.39 6a25.13 25.13 0 0 1-6.75-.79z"/></g></g></g><path id="_Compound_Path_22" data-name="&lt;Compound Path&gt;" class="cls-1" d="M78 40.66c-1.42-4.69-6.19-7.25-8.71-8.31a12.67 12.67 0 0 0 1-5.21c0-6.56-5.29-9-10.45-9.22-.68-3.35-3.84-6.42-8.75-6.42-5.63 0-10.29 4.5-10.29 6.75v58.47c0 3.21 1.93 9.28 9.25 9.28 5.14 0 8.07-3.81 9.23-6.54h.7a10.72 10.72 0 0 0 8-3.6c3.13-3.47 2.35-8.17 1.65-10.59a11.23 11.23 0 0 0 7.53-6.71 12.79 12.79 0 0 0-.11-9.56 10.75 10.75 0 0 0 .95-8.34zm-3.62 8.83a10.41 10.41 0 0 1 .38 8.07 8.59 8.59 0 0 1-6.5 5.33l-8.1-5.59v-7a3 3 0 1 0-2.67 0v8.42l9.34 6.45c.37 1 1.35 4.1.44 6.84L51.9 63.13v-6.7a3 3 0 1 0-2.67 0v8.24l16.63 9.6A8 8 0 0 1 60 76.81a6.56 6.56 0 0 1-1.28-.11l-1.24-.3-.35 1.23c0 .06-1.69 5.69-7.05 5.69a5.91 5.91 0 0 1-5.67-3.1l6.56-4a3 3 0 1 0-1.33-2.48v.15l-6.09 3.71a7.3 7.3 0 0 1-.07-.88V18.3c.22-.76 2.56-3.16 5.75-3.9v14.31a3 3 0 1 0 2.67 0v-14.5c3.71.35 5.39 3.08 5.39 5.05v1.43l1.43-.1h.52c2.51 0 8.36.64 8.36 6.56A8.7 8.7 0 0 1 66.41 32l-5.65 3.31v-5.86a3 3 0 1 0-2.67 0v7.46l-5.91 3.47a3 3 0 1 0 1.36 2.5v-.19l13.94-8.18a15.76 15.76 0 0 1 6.63 4.44l-7.16 4.55V51a3 3 0 1 0 2.67 0v-6l5.75-3.67v.12a8 8 0 0 1-1 6.64l-.49.68z"/><path id="_Compound_Path_23" data-name="&lt;Compound Path&gt;" class="cls-1" d="M1.38 49a12.79 12.79 0 0 0-.15 9.63 11.23 11.23 0 0 0 7.53 6.67c-.7 2.42-1.48 7.12 1.65 10.59a10.72 10.72 0 0 0 8 3.6h.7C20.3 82.18 23.23 86 28.37 86c7.32 0 9.25-6.07 9.25-9.28V18.25C37.63 16 33 11.5 27.35 11.5c-4.91 0-8.07 3.07-8.75 6.42-5.16.17-10.45 2.66-10.45 9.22a12.67 12.67 0 0 0 1 5.21C6.64 33.4 1.87 36 .45 40.66A10.75 10.75 0 0 0 1.38 49zm3.08-.21L4 48.07a8 8 0 0 1-1-6.64v-.12L8.81 45v6a3 3 0 1 0 2.67 0v-7.5l-7.15-4.55A15.76 15.76 0 0 1 11 34.51l13.91 8.19v.19a3 3 0 1 0 1.36-2.5l-5.91-3.47v-7.47a3 3 0 1 0-2.67 0v5.89L12 32a8.7 8.7 0 0 1-1.19-4.89c0-5.92 5.85-6.56 8.36-6.56h.52l1.43.1v-1.39c0-2 1.68-4.7 5.39-5.05v14.5a3 3 0 1 0 2.67 0V14.39c3.19.74 5.53 3.15 5.75 3.9v58.43a7.3 7.3 0 0 1-.07.88l-6.06-3.75v-.15a3 3 0 1 0-1.33 2.48l6.56 4a5.91 5.91 0 0 1-5.67 3.1c-5.36 0-7-5.64-7.05-5.69L21 76.4l-1.24.3a6.56 6.56 0 0 1-1.28.11 8 8 0 0 1-5.87-2.54l16.63-9.6v-8.24a3 3 0 1 0-2.67 0v6.69L11.19 72c-.9-2.74.08-5.85.44-6.84L21 58.69v-8.42a3 3 0 1 0-2.67 0v7l-8.1 5.59a8.59 8.59 0 0 1-6.5-5.33 10.41 10.41 0 0 1 .38-8.07z"/></g></svg>